<svg width="2100" height="1180" viewBox="0 0 2100 1180" xmlns="http://www.w3.org/2000/svg"><g fill="none" fill-rule="evenodd"><path fill="#B0708F" d="M282.141 547l-15.016 28.257-28.791 18.655-41.789 15.716L157 635v395h1770.001V636.109l-74.058-16.498-48.78-41.997-82.464-5.997-66.009 18.002-75.05-7.491-54.042 12.015-24.018-11.968-54.055 10.561-28.528 4.625-15.016 7.75L1393.397 628h-15.444l-15.267 7.001-15.43 4.109-12.255-.11-3 9.109-11.562 3.004-8.64 10.503-22.482 10.507-31.514 1.516-12.003 10.531-27.024 3.062-27.027 12.125-22.523 9.143-18.103-8.5h-41.96l-46.551-1.446L1043.001 709h-70.486l-43.643-15h-20.927l-21.022-8.946L817.746 679H801.33l-10.614-10h-17.917l-7.507-15.445-31.535-7.946L712.627 631h-17.912l-6.115-10h-11.904l-28.446-21.222-70.491-27.223L507.352 548h-22.864l-10.511 9.671L456.338 548h-37.922l-74.08 7.729"/><path fill="#9E6280" d="M282.07 641l-32.018 12.656L225.038 668l-33.018-4-35.02 8v358h1770V717h-27.468l-7.504 4.052-12.006 5.553-30.066-2.605H1838l-15.008 2.552-10.505 4.053-18.009 3-13.507-4.5-13.507-2.998-15.008-2.998-13.506 7.504-42.022 6.007-40.521-19.484-57.03 18.031-61.532-8.937-48.025-25.374-57.029 21.249-39.092-1.105h-43.451l-19.509-9.446-39.02 16.052-27.014 1.5-21.011-7.497-33.017 3.004-52.527-1.493-22.512 10.516-24.012 12.03-22.512-5.937-25.513 3.125-24.012-5.749-25.105-5.105h-33.425l-9.005-8.135-22.512-11.134-22.511-4.375-27.014-4.25L888.413 691h-63.434l-10.069 8.99-31.08 11.991-18.883 2.374-9.005 1.751-8.609 4.894h-16.904l-13.506-7.822-15.374-4.61-8.639 3.038L681.296 715h-12.398l-11.883-4.445-13.63-8.198-16.509-5.75L613.257 699h-13.394l-10.506-5.193-13.507-12.692-15.008-1.492-12.006 7.515-16.508 7.531-9.005-5.937-18.009-4.375-15.008-5.75-9.123-8.607h-11.888l-25.513 2.679-10.506-6.321-15.007-2.75L406.14 660h-11.883l-24.138 6.804-9.13-6.695-12.256-13.5"/><path fill="#81476D" d="M1515.102 598l-21.023 9-7.508-3-16.519-4.498-10.511 1.503-6.006 1.505-7.508 4.511-7.509 9.021-6.005 12.043-7.509 12.086-7.508 15.173-4.504 12.348-4.506 11.196h-7.508l-7.508-8.196-7.508-8.196-7.508-3-7.509-1.499-4.504-3-6.007-1.5-4.504 1.5-6.007 4.499-9.01 10.499-7.508 6.001-7.507 2.999-7.509 4.5-6.007 6.001-6.006 7.5-7.508 7.502-12.013 10.503-7.508 1.508-12.013 4.516-15.016 9.03-6.006-1.437-27.03 12.124-16.518 19.749-5.589.397h-10.929l-12.013 2.552-24.025 2.551-12.013-6-16.518-3-24.027 3-19.521-4.499-16.517-19.5-25.528-10.499-9.01-13.499-27.029-7.5-19.521 4.499-16.517 4.5-10.512 9-6.007 10.5-19.521 4.5-24.025-3.001-12.014-3-7.507 6.001-10.512-4.5-10.511-3-6.007-3-9.01 6-6.007-3-10.511-6-6.005 4.5-15.017-12-13.514-10.499-10.512-10.5-9.01-11.999-21.022-13.5-10.511-1.499-13.516 7.5-24.025-7.5-12.013-9-12.014 9-7.507-4.5-6.007 3-6.007 3-15.015 7.5-16.519 4.501L623.138 673l-10.511-7.496-21.023-8.992-16.518-1.484-9.01 9.03-16.517 9.062-19.521-4.375-16.518-10.249-30.151-5.608h-47.933l-13.515-11.693-24.024 10.804-16.516-8.996-12.009-7.495-13.507-2.239-7.492 3.771-23.994-3.708-23.963-3.665-17.893 7.67-24.409 30.551-34.038 9.106-41.046 11.894L157 676.994V1030h1770V636.997l-17.496-4.493-9.987-7.492-6.006-5.986-19.522 3.027-10.511 6.056-46.55 1.611-13.515-4.277-9.009-2.555h-7.509l-10.511 5h-12.014l-10.511-11.194-7.507-6.695-10.512-1.501-7.508 4.5-13.515 13.5-19.521-4.5-30.033-7.499-22.524 25.499-60.064-12-16.519-4.5-15.015-14.999"/><g><path d="M715 734.6879c-1-3.157-2.788-6.33-4.432-9.521-1.652 1.854-3.059 3.737-4.718 5.648-2.308-3.025-4.493-6.062-6.804-9.112-1.67 2.282-3.28 4.594-4.955 6.935-1.664-2.158-3.298-4.321-4.964-6.49-1.676 1.318-3.339 2.656-5.02 4.015-1.666-2.857-3.326-5.723-4.995-8.598-2.015 1.998-4.03 4.027-6.051 6.086-1.342-2.075-2.682-4.155-4.025-6.238-1.359 1.499-2.718 3.012-4.079 4.538-1.35-1.353-2.699-2.708-4.049-4.062-1.692.75-3.384 1.515-5.078 2.292-1.683-1.769-3.368-3.538-5.053-5.307-1.698 1.156-3.397 2.328-5.097 3.514-1.688-1.386-3.378-2.771-5.068-4.152-1.701.833-3.402 1.68-5.104 2.539-1.354-2.43-2.708-4.862-4.063-7.296-2.043 1.932-4.086 3.887-6.13 5.862-2.02-4.007-4.042-8.02-6.066-12.038-1.717 3.537-3.435 7.093-5.152 10.67-2.363-3.281-4.729-6.56-7.096-9.836-2.052 2.813-4.105 5.647-6.157 8.501-2.035-2.84-4.07-5.676-6.108-8.509-2.052 2.497-4.104 5.011-6.155 7.543-1.7-3.933-3.401-7.865-5.105-11.796-1.381 3.736-2.762 7.482-4.143 11.238-1.032-1.968-2.065-3.935-3.098-5.901-.702 1.881-1.405 3.765-2.108 5.651-1.704-4.291-3.411-8.579-5.119-12.864-1.717 4.157-3.433 8.326-5.148 12.506-1.708-2.733-3.417-5.46-5.127-8.181-1.713 2.659-3.426 5.327-5.137 8.003-1.711-3.859-3.422-7.712-5.135-11.556-1.714 3.845-3.426 7.697-5.138 11.556-1.713-1.907-3.426-3.806-5.14-5.696-1.711 1.952-3.422 3.911-5.132 5.876-1.715-3.795-3.432-7.58-5.149-11.353-1.708 3.9-3.414 7.805-5.119 11.713-1.377-1.857-2.754-3.706-4.132-5.549-1.371 1.987-2.74 3.976-4.11 5.967-1.376-1.833-2.753-3.658-4.131-5.476-1.705 2.024-3.409 4.052-5.113 6.083-2.056-4.042-4.112-8.062-6.169-12.06-2.369 4.396-4.735 8.793-7.099 13.188-1.718-3.623-3.435-7.228-5.153-10.815-1.692 3.968-3.383 7.932-5.072 11.891-1.712-2.064-3.423-4.114-5.134-6.148-1.693 2.468-3.385 4.937-5.076 7.404-1.714-3.515-3.428-7.008-5.141-10.478-1.349 3.929-2.698 7.85-4.045 11.763-1.704-1.604-3.408-3.194-5.111-4.767-1.688 2.122-3.374 4.244-5.059 6.364-1.369-1.982-2.737-3.95-4.104-5.904-1.681 2.502-3.362 5.001-5.042 7.496-2.038-3.641-4.075-7.245-6.109-10.812-2.001 4.4-4.001 8.785-6.001 13.152-1.704-4.691-3.406-9.343-5.106-13.956-1.66 5.393-3.32 10.763-4.98 16.107-1.688-2.467-3.374-4.908-5.058-7.321-1.664 3.229-3.328 6.447-4.992 9.651-1.68-2.047-3.358-4.07-5.033-6.067-1.662 2.87-3.323 5.73-4.985 8.577-1.676-3.705-3.349-7.371-5.019-10.995-1.653 4.588-3.307 9.15-4.961 13.684-1.649-2.594-3.794-5.156-5.436-7.683-1.637 3.528-3.412 7.036-5.412 10.524V910h335V734.6879zM1454 775l-4.87061-5.8331002-4.05325 4.8768242-2.50814-4.876824-4.718 4.648s-3.493-5.062-5.804-8.112c-1.67 2.282-4.28 4.594-5.955 6.935-1.664-2.158-3.298-4.321-4.964-6.49-1.676 1.318-3.339 2.656-5.02 4.015-1.666-2.857-3.326-5.723-4.995-8.598-2.015 1.998-4.03 4.027-6.051 6.086-1.342-2.075-2.682-4.155-4.025-6.238-1.359 1.499-2.718 3.012-4.079 4.538-1.35-1.353-2.699-2.708-4.049-4.062-1.692.75-3.384 1.515-5.078 2.292-1.683-1.769-3.368-3.538-5.053-5.307-1.698 1.156-3.397 2.328-5.097 3.514-1.688-1.386-3.378-2.771-5.068-4.152-1.701.833-3.402 1.68-5.104 2.539-1.354-2.43-2.708-4.862-4.063-7.296-2.043 1.932-4.086 3.887-6.13 5.862-2.02-4.007-4.042-8.02-6.066-12.038-1.717 3.537-3.435 7.093-5.152 10.67-2.363-3.281-4.729-6.56-7.096-9.836-2.052 2.813-4.105 5.647-6.157 8.501-2.035-2.84-4.07-5.676-6.108-8.509-2.052 2.497-4.104 5.011-6.155 7.543-1.7-3.933-3.401-7.865-5.105-11.796-1.381 3.736-2.762 7.482-4.143 11.238-1.032-1.968-2.065-3.935-3.098-5.901-.702 1.881-1.405 3.765-2.108 5.651-1.704-4.291-3.411-8.579-5.119-12.864-1.717 4.157-3.433 8.326-5.148 12.506-1.708-2.733-3.417-5.46-5.127-8.181-1.713 2.659-3.426 5.327-5.137 8.003-1.711-3.859-3.422-7.712-5.135-11.556-1.714 3.845-3.426 7.697-5.138 11.556-1.713-1.907-3.426-3.806-5.14-5.696-1.711 1.952-3.422 3.911-5.132 5.876-1.715-3.795-3.432-7.58-5.149-11.353-1.708 3.9-3.414 7.805-5.119 11.713-1.377-1.857-2.754-3.706-4.132-5.549-1.371 1.987-2.74 3.976-4.11 5.967-1.376-1.833-2.753-3.658-4.131-5.476-1.705 2.024-3.409 4.052-5.113 6.083-2.056-4.042-4.112-8.062-6.169-12.06-2.369 4.396-4.735 8.793-7.099 13.188-1.718-3.623-3.435-7.228-5.153-10.815-1.692 3.968-3.383 7.932-5.072 11.891-1.712-2.064-3.423-4.114-5.134-6.148-1.693 2.468-3.385 4.937-5.076 7.404-1.714-3.515-3.428-7.008-5.141-10.478-1.349 3.929-2.698 7.85-4.045 11.763-1.704-1.604-3.408-3.194-5.111-4.767-1.688 2.122-3.374 4.244-5.059 6.364-1.369-1.982-2.737-3.95-4.104-5.904-1.681 2.502-3.362 5.001-5.042 7.496-2.038-3.641-4.075-7.245-6.109-10.812-2.001 4.4-4.001 8.785-6.001 13.152-1.704-4.691-3.406-9.343-5.106-13.956-1.66 5.393-3.32 10.763-4.98 16.107-1.688-2.467-3.374-4.908-5.058-7.321-1.664 3.229-3.328 6.447-4.992 9.651-1.68-2.047-3.358-4.07-5.033-6.067-1.662 2.87-3.323 5.73-4.985 8.577-1.676-3.705-3.349-7.371-5.019-10.995-1.653 4.588-3.307 9.15-4.961 13.684-1.649-2.594-3.794-5.156-5.436-7.683-1.637 3.528-3.412 7.036-5.412 10.524l-5.25-5.5299991-2.991211 8.4895592-2.508789-2.9595604L1098 785v155h356V775z" fill="#683D66"/><path fill="#593656" d="M360.288 708.0009989l-12.465 17.0315119-14.195-14.8428877-11.505 17.0075379-14.221-14.8438866-11.566 17.0075379L282 715.0163835l-14.001 16.058568L256 716.4857885l-6.001 14.589163L234 711.4612427l-7 19.6137088-12.001-19.6137088-11 19.6137088L191 711.4612427l-8 25.0248349-14.001-19.0013735L157 739.749535V1030h1770V716.4857885l-6.24 17.3032169-6.785-15.6250387-5.178 16.2913154-6.963-15.6260375-5.27 16.2913153-7.172-15.6160484-6.012 16.5949858-8.782-15.2514442-5.881 16.5829987-8.782-15.2504452-5.882 16.5819998-7.69-15.2754182-9.131 14.5122466-12.475-17.0574836-10.193 14.3943745-4.472-17.0574837-10.194 14.3933757-5.968-17.1853449-10.944 17.421089-13.99-14.3604114-10.013 17.3561594-21.985-14.3594125-5.013 17.3561594-9.824-14.2095751-12.72 24.2996221-6.799-12.5004304-9.637 12.4914402-3.523-17.0474945-7.481 11.7172806-6.516-17.0434989-8.479 11.7182795-4.693-13.7400847-7.504 12.2057503-8.13-15.6370256-6.872 16.3023034-8.128-15.6370256-4.87 16.3033024-9.949-15.562107-11.93 18.7366609-10.878-12.660257-11.455 18.6547498-13.874-12.6622548-11.455 18.6537509-14.162-15.5930733-11.187 21.7583807-11.854-12.0019716-10.816 18.6617422-11.849-12.0019715-10.816 18.6617422-11.75-12.031939-9.778 18.0793743-11.127-11.7792133-8.875 17.1074294-11.124-11.7792133-8.874 17.1064305-8.136-12.7751323-9.152 17.4250846-7.547-13.4204317-7.122 17.4160939-10.543-17.4170929-4.122 21.4127559-10.903-8.5746919-5.522 11.6403639-9.53-9.0671572-6.138 10.7333482-8.527-11.0659871-7.139 12.7291821-8.186-10.09604-9.559 8.996234-3.377-17.2762463-10.963 13.7780433-3.365-17.2732491-10.96 13.7800411-4.318-17.4460616-8.45 15.9257126-7.505-15.9826508-7.498 15.9826508-7.5-15.9826508-7.498 15.9826508-6.952-15.9636714-10.54 14.7779582-7.02-11.9889857-10.983 9.7404265-7.017-10.989071-3.981 8.7425097-7.168-16.8307298-8.417 12.8640358-7.35-17.0444978-7.654 12.4634706-7.342-17.0395032-7.652 12.4634706-3.394-10.6634246-2.687 10.7782999-7.694-8.8154306-4.977 13.3125489-6.685-8.8184274-5.975 13.31155-7.443-21.1370552-7.57 23.8441166-6.005-11.9859889-6 11.9859889-5.995-12.9849046-5.999 12.9849046-5.996-21.9751454-7.337 21.9751454-8.337-16.9815661-6.331 16.9815661-7.334-20.9762298-7.332 20.9762298-9.336-15.9207177-5.354 14.0247758-6.29-21.8083265-7.714 16.7298393-6.282-16.8117504-6.713 13.7330924-4.585-20.1641113-3.224 20.262005-8.178-21.1660237-5.495 24.0798607-6.167-11.1778662-7.492 14.0907042-8.423-22.3417474-8.475 22.1629415-5.718-13.1157625-7.287 9.9511977-6.708-14.1116814-6.285 10.9511123-10.773-27.2823843-8.501 25.9288536-8.671-15.9836493-8.664 15.9836493-8.668-15.9836493-8.664 15.9836493-11.686-15.9227155-7.639 13.2076628-8.69-18.1752703-11.314 16.094529-11.685-21.1720173-10.312 16.094529-10.901-20.9642428-11.426 9.8872671-11.535-19.7595504-11.135 11.6213846-10.53-20.7564683-13.134 13.619216-11.749-28.3382381-9.194 22.9400979-12.983-13.6761541-9.021 17.9005684-13.976-13.6771531-9.021 17.9025663-12.458-15.7409128-9.945 17.9475175-8.354-23.4415536-6.17 12.2107449-6.146-4.7508428-11.665 15.9816515-7.667-22.974061-9.664 22.974061L585 732.9688956l-9.671 15.9816515-9.672-15.9816515-9.664 15.9816515-9.668-15.9816515-9.664 15.9816515-8.896-15.9456905-13.347 13.8219958-8.352-17.7307528-13.985 13.7350902-8.346-17.7307528-13.985 13.7350902-8.566-17.7667137-18.885 13.6641671-14.608-18.0144448-18.73 13.6851444-14.605-18.0134459-18.725 13.6851444"/><path fill="#482B47" d="M1133.673 811.999l-7.382 28.193-7.098-14.396-6.241 17.064-9.087-14.398-7.239 17.063-6.871-14.529-10.627 15.322-13.771-16.651-10.231 15.317-14.764-23.65-14.23 22.317-13.463-16.63-11.138 14.557-7.074-17.173-11.594 14.507-11.072-17.173-7.593 14.506-12.933-24.218-9.518 29.234-12.01-13.032-9.324 20.032-10.004-17.034-8.325 21.033-7.301-14.175-7.314 18.727-12.956-17.138-9.047 18.805-10.955-29.139-12.052 30.805-12.749-20.148-11.529 21.162-9.058-15.832-8.801 16.166L790.081 845l-10.13 16.826L769 848v199h648V830l-10.839 14.993-15.83-22.001-8.835 22.001-14.836-15-10.832 15-10.036-18.997-8.5 19.472-13.598-21.449-8.074 22.45-7.587-13.451-5.073 14.45-9.22-10.472-6.744 10.997-11.004-21-6.998 21-10.001-16.001-7.998 16.001-10.624-15.991-8.113 15.123-9.528-24.766-8.474 23.099-10.525-16.765-7.473 15.098-10.599-17.771-6.41 16.285-11.011-16.625-8.325 15.291-11.007-19.625-6.324 18.292M485.673 828.999l-7.382 28.193-7.098-14.396-6.241 17.064-9.087-14.398-7.239 17.063-6.871-14.529-10.627 15.322-13.771-16.651-10.231 15.317-14.764-23.65-14.23 22.317-13.463-16.63-11.138 14.557-7.074-17.173-11.594 14.507-11.072-17.173-7.593 14.506-12.933-24.218-9.518 29.234-12.01-13.032-9.324 20.032-10.004-17.034-8.325 21.033-7.301-14.175-7.314 18.727-12.956-17.138-9.047 18.805-10.955-29.139-12.052 30.805-12.749-20.148-11.529 21.162-9.058-15.832-8.801 16.166L142.081 862l-10.13 16.826L121 865v182.000007h648V847l-10.839 14.993-15.83-22.001-8.835 22.001-14.836-15-10.832 15-10.036-18.997-8.5 19.472-13.598-21.449-8.074 22.45-7.587-13.451-5.073 14.45-9.22-10.472-6.744 10.997-11.004-21-6.998 21-10.001-16.001-7.998 16.001-10.624-15.991-8.113 15.123-9.528-24.766-8.474 23.099-10.525-16.765-7.473 15.098-10.599-17.771-6.41 16.285-11.011-16.625-8.325 15.291-11.007-19.625-6.324 18.292M1781.673 794.999l-7.382 28.193-7.098-14.396-6.241 17.064-9.087-14.398-7.239 17.063-6.871-14.529-10.627 15.322-13.771-16.651-10.231 15.317-14.764-23.65-14.23 22.317-13.463-16.63-11.138 14.557-7.074-17.173-11.594 14.507-11.072-17.173-7.593 14.506-12.933-24.218-9.518 29.234-12.01-13.032-9.324 20.032-10.004-17.034-8.325 21.033-7.301-14.175-7.314 18.727-12.956-17.138-9.047 18.805-10.955-29.139-12.052 30.805-12.749-20.148-11.529 21.162-9.058-15.832-8.801 16.166L1438.081 828l-10.13 16.826L1417 831v216.000007L2065 1047V813l-10.839 14.993-15.83-22.001-8.835 22.001-14.836-15-10.832 15-10.036-18.997-8.5 19.472-13.598-21.449-8.074 22.45-7.587-13.451-5.073 14.45-9.22-10.472-6.744 10.997-11.004-21-6.998 21-10.001-16.001-7.998 16.001-10.624-15.991-8.113 15.123-9.528-24.766-8.474 23.099-10.525-16.765-7.473 15.098-10.599-17.771-6.41 16.285-11.011-16.625-8.325 15.291-11.007-19.625-6.324 18.292"/></g><g fill="#EDBA8C"><path opacity=".5" d="M1088.9598 904.2601l-5.858-1.336-5.653-1.413-11.314-2.933-.527-.298-2.666-2.597-2.285-2.406-4.873-2.508-3.587-1.902-6.138-3.069-5.0588-2.749516 5.4898 1.737516 6.465 2.301 3.807 1.689 5.273 2.534 2.667 2.599 2.605 2.634 10.713 2.851 5.617 1.681 5.523 1.938 16.20104 3.250572"/><path d="M931.8126 845.9798l.652 7.269 6.54 3.344 7.573-.248 23.358 4.638 7.504 3.667 6.93 3.577 7.253-.073 7.38-.128409 5.13 3.564409 5.067.977 6.143 2.204 7.122 1.517 7.234 1.583 11.304 5.154591-11.581-4.222591-7.217-1.14-7.305-1.205-6.196-1.975-5.357-.894-5.096-3.19-6.628.255-7.253.026-8.031-3.798-7.467-3.714-22.501-4.902-7.759-.142-6.762-3.745-.334-.502-.513-7.82.257-.418 9.743-3.613409"/><path opacity=".5" d="M1043.0311 815.5761l-10.668.131-5.378-.082-5.325-.267-10.642-.665-4.415 1.387-4.865 1.394-4.873 1.37-4.886 1.323-3.606 1.708-3.769 1.743-7.607 3.354 7.12-4.292 3.594-2.081 3.608-2.053 4.951-1.67 4.814-1.562 4.822-1.538 5.246-1.546 10.665.725 5.315.426 5.276.298 10.652.611 9.937.939976M1058.7161 812.9091l2.546-.997 1.816513-.847403 1.044067-5.3853755-2.29758-1.9172215-2.807-2.495-1.996-1.034-2.18-1.201-4.770445-.4013627V798.125l4.995445-.1649 2.583.855 2.336.85 3.275 2.284 2.994 2.259.453 1.197-1.503 6.928-.743.758-2.654.636-2.674.572-5.428.874"/><path d="M1048.9259 792.0821533l-2.776.1360467-2.113 1.628.323 3.179 2.992.738 2.663115.3119951v.5520019l-2.743115.133003-3.874-1.315-.382-3.761 2.562713-2.2004354 5.216431-.2395646.213013.8379533M1068.1194 782.0897l-4.374 2.368-.945-.046.476-.817 4.368-2.38.948.052M1094.2733 761.1412l-3.471 1.594-3.545 1.377-3.613 1.178-3.85 4.906-4.783314 4.591 3.473314-5.566 3.828-5.752 4.137-1.707 3.641-1.096 4.510347-1.3548597 2.962402.657959M964.8 730.8646l8.616-.581 8.618-.531 11.103 5.993 8.005 2.071 8.257 2.222 15.3349982 10.9353383L1033.086 749.2716l8.8-1.541 4.845.974 4.435.906 8.979 1.635 16.882768 3.7700243L1059.945 752.5166l-9.047-1.211-4.534-.765-4.49-.818-8.374 1.756-8.766 1.725-.898-.187-15.468-10.778-7.859-2.099-8.495-2.429-10.422-6.134-8.105.347-8.633.169-16.8424644.9293727M1042.998 708.9999l5.742.325 5.731.418 11.433 1.078 11.401 1.344 11.266 1.755 6.103.225 6.103.095 6.103-.029 6.103-.148 12.123 7.071.33 1.354-6.045 6.259-5.919 6.018-1.04.364-10.555-1.485-10.063-1.697-7.189 1.348-7.201 1.295-7.214 1.233-7.198587 1.2207393L1069.997 734.8109l7.097-1.784 7.111-1.722 7.122-1.669 10.936 1.364 10.492 1.584 4.993-5.498 5.280745-5.1097036L1112.682 715.0979l-5.802-.061-6.103-.029-6.103-.006-6.187.219-11.444-.939-11.393-1.361-11.361-1.669-5.666-.956"/></g></g></svg>